<svg id="visual" viewBox="0 0 960 540" width="960" height="540" xmlns="http://www.w3.org/2000/svg" xmlns:xlink="http://www.w3.org/1999/xlink" version="1.1"><g stroke-width="1" stroke-linejoin="bevel"><path d="M491.6 320.6L467.4 326.6L508.6 395.7Z" fill="#06436c" stroke="#06436c"></path><path d="M467.4 326.6L428.4 372.7L508.6 395.7Z" fill="#00355d" stroke="#00355d"></path><path d="M508.6 395.7L584.9 383.7L491.6 320.6Z" fill="#033c64" stroke="#033c64"></path><path d="M420.4 220.4L382.1 302.6L467.4 326.6Z" fill="#0f517b" stroke="#0f517b"></path><path d="M467.4 326.6L382.1 302.6L428.4 372.7Z" fill="#033c64" stroke="#033c64"></path><path d="M358.1 400.7L408.4 461.9L428.4 372.7Z" fill="#135882" stroke="#135882"></path><path d="M428.4 372.7L408.4 461.9L508.6 395.7Z" fill="#175f89" stroke="#175f89"></path><path d="M508.6 395.7L531.6 493.9L584.9 383.7Z" fill="#0f517b" stroke="#0f517b"></path><path d="M382.1 302.6L358.1 400.7L428.4 372.7Z" fill="#0a4a73" stroke="#0a4a73"></path><path d="M408.4 461.9L531.6 493.9L508.6 395.7Z" fill="#1b6791" stroke="#1b6791"></path><path d="M531.6 493.9L617.9 424.9L584.9 383.7Z" fill="#033c64" stroke="#033c64"></path><path d="M534.6 205.4L420.4 220.4L491.6 320.6Z" fill="#0f517b" stroke="#0f517b"></path><path d="M491.6 320.6L420.4 220.4L467.4 326.6Z" fill="#1b6791" stroke="#1b6791"></path><path d="M661.2 367.7L622.9 272.6L584.9 383.7Z" fill="#175f89" stroke="#175f89"></path><path d="M584.9 383.7L622.9 272.6L491.6 320.6Z" fill="#0f517b" stroke="#0f517b"></path><path d="M584.9 223.4L534.6 205.4L491.6 320.6Z" fill="#06436c" stroke="#06436c"></path><path d="M622.9 272.6L584.9 223.4L491.6 320.6Z" fill="#0f517b" stroke="#0f517b"></path><path d="M298.8 438.9L336.1 430.9L358.1 400.7Z" fill="#297ea6" stroke="#297ea6"></path><path d="M358.1 400.7L336.1 430.9L408.4 461.9Z" fill="#206f98" stroke="#206f98"></path><path d="M617.9 424.9L661.2 367.7L584.9 383.7Z" fill="#0a4a73" stroke="#0a4a73"></path><path d="M473.4 540L531.6 493.9L408.4 461.9Z" fill="#206f98" stroke="#206f98"></path><path d="M473.4 540L484.6 540L531.6 493.9Z" fill="#06436c" stroke="#06436c"></path><path d="M531.6 493.9L662.2 493.9L617.9 424.9Z" fill="#206f98" stroke="#206f98"></path><path d="M348.1 540L473.4 540L408.4 461.9Z" fill="#135882" stroke="#135882"></path><path d="M252.8 335.6L298.8 438.9L358.1 400.7Z" fill="#135882" stroke="#135882"></path><path d="M336.1 430.9L348.1 540L408.4 461.9Z" fill="#00355d" stroke="#00355d"></path><path d="M252.8 335.6L358.1 400.7L382.1 302.6Z" fill="#24769f" stroke="#24769f"></path><path d="M635.9 115.3L559.6 155.3L584.9 223.4Z" fill="#0a4a73" stroke="#0a4a73"></path><path d="M584.9 223.4L559.6 155.3L534.6 205.4Z" fill="#297ea6" stroke="#297ea6"></path><path d="M534.6 205.4L420.4 136.3L420.4 220.4Z" fill="#206f98" stroke="#206f98"></path><path d="M643.9 540L662.2 493.9L531.6 493.9Z" fill="#24769f" stroke="#24769f"></path><path d="M617.9 424.9L662.2 493.9L661.2 367.7Z" fill="#00355d" stroke="#00355d"></path><path d="M661.2 367.7L707.2 318.6L622.9 272.6Z" fill="#297ea6" stroke="#297ea6"></path><path d="M622.9 272.6L702.2 255.4L584.9 223.4Z" fill="#135882" stroke="#135882"></path><path d="M779.5 363.7L707.2 318.6L661.2 367.7Z" fill="#00355d" stroke="#00355d"></path><path d="M318.1 187.3L324.1 208.4L420.4 220.4Z" fill="#24769f" stroke="#24769f"></path><path d="M420.4 220.4L324.1 208.4L382.1 302.6Z" fill="#033c64" stroke="#033c64"></path><path d="M298.8 438.9L348.1 540L336.1 430.9Z" fill="#24769f" stroke="#24769f"></path><path d="M559.6 155.3L420.4 136.3L534.6 205.4Z" fill="#135882" stroke="#135882"></path><path d="M484.6 540L643.9 540L531.6 493.9Z" fill="#1b6791" stroke="#1b6791"></path><path d="M273.8 231.4L252.8 335.6L382.1 302.6Z" fill="#0a4a73" stroke="#0a4a73"></path><path d="M707.2 318.6L702.2 255.4L622.9 272.6Z" fill="#1b6791" stroke="#1b6791"></path><path d="M420.4 136.3L318.1 187.3L420.4 220.4Z" fill="#0f517b" stroke="#0f517b"></path><path d="M324.1 208.4L273.8 231.4L382.1 302.6Z" fill="#0a4a73" stroke="#0a4a73"></path><path d="M318.1 187.3L273.8 231.4L324.1 208.4Z" fill="#0a4a73" stroke="#0a4a73"></path><path d="M643.9 540L677.2 540L662.2 493.9Z" fill="#00355d" stroke="#00355d"></path><path d="M779.5 363.7L762.5 292.6L707.2 318.6Z" fill="#00355d" stroke="#00355d"></path><path d="M252.8 335.6L229.8 419.7L298.8 438.9Z" fill="#24769f" stroke="#24769f"></path><path d="M298.8 438.9L251.8 540L348.1 540Z" fill="#135882" stroke="#135882"></path><path d="M164.5 321.6L229.8 419.7L252.8 335.6Z" fill="#033c64" stroke="#033c64"></path><path d="M779.5 363.7L661.2 367.7L779.5 463.9Z" fill="#206f98" stroke="#206f98"></path><path d="M707.2 318.6L762.5 292.6L702.2 255.4Z" fill="#206f98" stroke="#206f98"></path><path d="M663.2 124.3L635.9 115.3L584.9 223.4Z" fill="#135882" stroke="#135882"></path><path d="M663.2 124.3L584.9 223.4L702.2 255.4Z" fill="#0a4a73" stroke="#0a4a73"></path><path d="M559.6 155.3L532.6 48.1L420.4 136.3Z" fill="#06436c" stroke="#06436c"></path><path d="M264.8 101.1L260.8 186.3L318.1 187.3Z" fill="#297ea6" stroke="#297ea6"></path><path d="M318.1 187.3L260.8 186.3L273.8 231.4Z" fill="#06436c" stroke="#06436c"></path><path d="M273.8 231.4L164.5 321.6L252.8 335.6Z" fill="#135882" stroke="#135882"></path><path d="M779.5 463.9L661.2 367.7L662.2 493.9Z" fill="#06436c" stroke="#06436c"></path><path d="M857.7 269.6L756.5 245.4L762.5 292.6Z" fill="#206f98" stroke="#206f98"></path><path d="M762.5 292.6L756.5 245.4L702.2 255.4Z" fill="#24769f" stroke="#24769f"></path><path d="M756.5 245.4L663.2 124.3L702.2 255.4Z" fill="#175f89" stroke="#175f89"></path><path d="M229.8 419.7L251.8 540L298.8 438.9Z" fill="#24769f" stroke="#24769f"></path><path d="M677.2 540L779.5 463.9L662.2 493.9Z" fill="#175f89" stroke="#175f89"></path><path d="M407.4 49.1L318.1 95.1L420.4 136.3Z" fill="#1b6791" stroke="#1b6791"></path><path d="M420.4 136.3L318.1 95.1L318.1 187.3Z" fill="#00355d" stroke="#00355d"></path><path d="M641.9 62.1L532.6 48.1L635.9 115.3Z" fill="#24769f" stroke="#24769f"></path><path d="M635.9 115.3L532.6 48.1L559.6 155.3Z" fill="#00355d" stroke="#00355d"></path><path d="M532.6 48.1L407.4 49.1L420.4 136.3Z" fill="#0f517b" stroke="#0f517b"></path><path d="M195.5 192.4L273.8 231.4L260.8 186.3Z" fill="#1b6791" stroke="#1b6791"></path><path d="M195.5 192.4L164.5 321.6L273.8 231.4Z" fill="#0a4a73" stroke="#0a4a73"></path><path d="M229.8 419.7L152.5 471.9L251.8 540Z" fill="#175f89" stroke="#175f89"></path><path d="M708.2 88.1L641.9 62.1L663.2 124.3Z" fill="#033c64" stroke="#033c64"></path><path d="M663.2 124.3L641.9 62.1L635.9 115.3Z" fill="#135882" stroke="#135882"></path><path d="M196.5 129.3L195.5 192.4L260.8 186.3Z" fill="#135882" stroke="#135882"></path><path d="M677.2 540L779.5 540L779.5 463.9Z" fill="#0a4a73" stroke="#0a4a73"></path><path d="M316.1 0L264.8 101.1L318.1 95.1Z" fill="#135882" stroke="#135882"></path><path d="M318.1 95.1L264.8 101.1L318.1 187.3Z" fill="#24769f" stroke="#24769f"></path><path d="M113.3 330.6L143.5 394.7L164.5 321.6Z" fill="#06436c" stroke="#06436c"></path><path d="M164.5 321.6L143.5 394.7L229.8 419.7Z" fill="#297ea6" stroke="#297ea6"></path><path d="M756.5 245.4L708.2 88.1L663.2 124.3Z" fill="#033c64" stroke="#033c64"></path><path d="M143.5 394.7L152.5 471.9L229.8 419.7Z" fill="#00355d" stroke="#00355d"></path><path d="M891.7 432.9L850.7 370.7L779.5 463.9Z" fill="#0a4a73" stroke="#0a4a73"></path><path d="M779.5 463.9L850.7 370.7L779.5 363.7Z" fill="#135882" stroke="#135882"></path><path d="M779.5 363.7L857.7 269.6L762.5 292.6Z" fill="#06436c" stroke="#06436c"></path><path d="M756.5 245.4L755.5 85.1L708.2 88.1Z" fill="#297ea6" stroke="#297ea6"></path><path d="M624.9 0L541.6 0L532.6 48.1Z" fill="#206f98" stroke="#206f98"></path><path d="M532.6 48.1L398.4 0L407.4 49.1Z" fill="#1b6791" stroke="#1b6791"></path><path d="M407.4 49.1L316.1 0L318.1 95.1Z" fill="#1b6791" stroke="#1b6791"></path><path d="M624.9 0L532.6 48.1L641.9 62.1Z" fill="#297ea6" stroke="#297ea6"></path><path d="M541.6 0L398.4 0L532.6 48.1Z" fill="#0a4a73" stroke="#0a4a73"></path><path d="M152.5 471.9L162.5 540L251.8 540Z" fill="#24769f" stroke="#24769f"></path><path d="M157.5 77.1L196.5 129.3L264.8 101.1Z" fill="#00355d" stroke="#00355d"></path><path d="M264.8 101.1L196.5 129.3L260.8 186.3Z" fill="#24769f" stroke="#24769f"></path><path d="M119.3 217.4L113.3 330.6L164.5 321.6Z" fill="#033c64" stroke="#033c64"></path><path d="M119.3 217.4L164.5 321.6L195.5 192.4Z" fill="#00355d" stroke="#00355d"></path><path d="M54.3 431.9L119.3 540L152.5 471.9Z" fill="#24769f" stroke="#24769f"></path><path d="M152.5 471.9L119.3 540L162.5 540Z" fill="#1b6791" stroke="#1b6791"></path><path d="M850.7 370.7L857.7 269.6L779.5 363.7Z" fill="#135882" stroke="#135882"></path><path d="M824.5 142.3L755.5 85.1L756.5 245.4Z" fill="#24769f" stroke="#24769f"></path><path d="M692.2 0L624.9 0L641.9 62.1Z" fill="#206f98" stroke="#206f98"></path><path d="M692.2 0L641.9 62.1L708.2 88.1Z" fill="#135882" stroke="#135882"></path><path d="M111.3 129.3L119.3 217.4L195.5 192.4Z" fill="#175f89" stroke="#175f89"></path><path d="M398.4 0L316.1 0L407.4 49.1Z" fill="#24769f" stroke="#24769f"></path><path d="M878.7 240.4L824.5 142.3L756.5 245.4Z" fill="#0f517b" stroke="#0f517b"></path><path d="M960 312.6L878.7 240.4L857.7 269.6Z" fill="#135882" stroke="#135882"></path><path d="M857.7 269.6L878.7 240.4L756.5 245.4Z" fill="#135882" stroke="#135882"></path><path d="M865.7 540L891.7 432.9L779.5 463.9Z" fill="#297ea6" stroke="#297ea6"></path><path d="M850.7 370.7L960 312.6L857.7 269.6Z" fill="#0a4a73" stroke="#0a4a73"></path><path d="M54.3 431.9L152.5 471.9L143.5 394.7Z" fill="#0f517b" stroke="#0f517b"></path><path d="M805.5 0L692.2 0L755.5 85.1Z" fill="#06436c" stroke="#06436c"></path><path d="M755.5 85.1L692.2 0L708.2 88.1Z" fill="#24769f" stroke="#24769f"></path><path d="M779.5 540L865.7 540L779.5 463.9Z" fill="#1b6791" stroke="#1b6791"></path><path d="M878.7 240.4L854.7 145.3L824.5 142.3Z" fill="#0a4a73" stroke="#0a4a73"></path><path d="M837.7 0L805.5 0L883.7 39.1Z" fill="#0f517b" stroke="#0f517b"></path><path d="M113.3 330.6L63.3 394.7L143.5 394.7Z" fill="#033c64" stroke="#033c64"></path><path d="M0 396.7L63.3 394.7L0 279.6Z" fill="#00355d" stroke="#00355d"></path><path d="M209.5 0L157.5 77.1L264.8 101.1Z" fill="#297ea6" stroke="#297ea6"></path><path d="M196.5 129.3L111.3 129.3L195.5 192.4Z" fill="#033c64" stroke="#033c64"></path><path d="M0 279.6L63.3 394.7L113.3 330.6Z" fill="#033c64" stroke="#033c64"></path><path d="M316.1 0L239.8 0L264.8 101.1Z" fill="#00355d" stroke="#00355d"></path><path d="M63.3 394.7L54.3 431.9L143.5 394.7Z" fill="#06436c" stroke="#06436c"></path><path d="M157.5 77.1L111.3 129.3L196.5 129.3Z" fill="#0f517b" stroke="#0f517b"></path><path d="M63.3 394.7L0 396.7L54.3 431.9Z" fill="#00355d" stroke="#00355d"></path><path d="M239.8 0L209.5 0L264.8 101.1Z" fill="#0a4a73" stroke="#0a4a73"></path><path d="M157.5 77.1L80.3 89.1L111.3 129.3Z" fill="#06436c" stroke="#06436c"></path><path d="M960 482.9L960 377.7L891.7 432.9Z" fill="#0f517b" stroke="#0f517b"></path><path d="M891.7 432.9L960 377.7L850.7 370.7Z" fill="#0f517b" stroke="#0f517b"></path><path d="M878.7 240.4L960 114.3L854.7 145.3Z" fill="#175f89" stroke="#175f89"></path><path d="M960 377.7L960 312.6L850.7 370.7Z" fill="#175f89" stroke="#175f89"></path><path d="M805.5 0L755.5 85.1L883.7 39.1Z" fill="#1b6791" stroke="#1b6791"></path><path d="M755.5 85.1L824.5 142.3L883.7 39.1Z" fill="#297ea6" stroke="#297ea6"></path><path d="M960 312.6L960 251.4L878.7 240.4Z" fill="#1b6791" stroke="#1b6791"></path><path d="M865.7 540L960 482.9L891.7 432.9Z" fill="#0f517b" stroke="#0f517b"></path><path d="M0 279.6L113.3 330.6L119.3 217.4Z" fill="#0a4a73" stroke="#0a4a73"></path><path d="M54.3 431.9L0 540L119.3 540Z" fill="#0a4a73" stroke="#0a4a73"></path><path d="M99.3 0L80.3 89.1L157.5 77.1Z" fill="#297ea6" stroke="#297ea6"></path><path d="M0 204.4L0 279.6L119.3 217.4Z" fill="#0a4a73" stroke="#0a4a73"></path><path d="M0 204.4L119.3 217.4L0 155.3Z" fill="#1b6791" stroke="#1b6791"></path><path d="M0 396.7L0 447.9L54.3 431.9Z" fill="#24769f" stroke="#24769f"></path><path d="M883.7 39.1L824.5 142.3L854.7 145.3Z" fill="#00355d" stroke="#00355d"></path><path d="M865.7 540L960 540L960 482.9Z" fill="#24769f" stroke="#24769f"></path><path d="M960 114.3L883.7 39.1L854.7 145.3Z" fill="#033c64" stroke="#033c64"></path><path d="M0 155.3L119.3 217.4L111.3 129.3Z" fill="#24769f" stroke="#24769f"></path><path d="M0 447.9L0 540L54.3 431.9Z" fill="#206f98" stroke="#206f98"></path><path d="M80.3 89.1L0 155.3L111.3 129.3Z" fill="#175f89" stroke="#175f89"></path><path d="M209.5 0L99.3 0L157.5 77.1Z" fill="#0a4a73" stroke="#0a4a73"></path><path d="M80.3 89.1L0 49.1L0 155.3Z" fill="#24769f" stroke="#24769f"></path><path d="M960 251.4L960 114.3L878.7 240.4Z" fill="#033c64" stroke="#033c64"></path><path d="M960 114.3L960 55.1L883.7 39.1Z" fill="#06436c" stroke="#06436c"></path><path d="M883.7 39.1L960 0L837.7 0Z" fill="#297ea6" stroke="#297ea6"></path><path d="M99.3 0L0 49.1L80.3 89.1Z" fill="#0a4a73" stroke="#0a4a73"></path><path d="M960 55.1L960 0L883.7 39.1Z" fill="#06436c" stroke="#06436c"></path><path d="M99.3 0L0 0L0 49.1Z" fill="#24769f" stroke="#24769f"></path></g></svg>