<?xml version="1.0" encoding="utf-8"?>
<!-- Generator: Adobe Illustrator 26.5.0, SVG Export Plug-In . SVG Version: 6.00 Build 0)  -->
<svg version="1.1" id="Capa_1" xmlns="http://www.w3.org/2000/svg" xmlns:xlink="http://www.w3.org/1999/xlink" x="0px" y="0px"
	 viewBox="0 0 170.1 170.1" style="enable-background:new 0 0 170.1 170.1;" xml:space="preserve">
<style type="text/css">
	.st0{fill:#454A4C;}
	.st1{fill:#85A2B7;}
</style>
<path class="st0" d="M109,4.1c8.4,1.1,18.2,2.5,29.4,4.3v98.4c0,23.6-7.8,41.9-23.5,54.9c-2,1.6-6.4,3-13.3,4.2
	c-6.9,1.2-14.8,1.7-23.5,1.7c-19,0-33.9-2.5-45-7.4c-0.2-3.6,0.1-8.4,0.9-14.3c0.7-5.9,1.5-10.6,2.3-14.1
	c11.9,1.8,23.5,2.7,34.9,2.7c5.8,0,10.7-0.3,14.7-0.9c4-0.6,6.6-1.4,7.5-2.6c1.3-1.3,2.3-6.3,3-14.8c0.2-2.3,0.2-5.7,0.2-10.1v-6.2
	c-4.1,6.1-9.4,10.5-15.8,13.1c-6.4,2.6-12.2,4-17.3,4c-13.8,0-24.3-4.5-31.4-13.6C25,94.3,21.5,81,21.5,63.5
	c0-11.5,1.6-22.4,4.8-32.5c3.2-10.1,7.6-17.2,13.2-21.1c3.6-2.5,9.5-4.3,17.7-5.6c8.2-1.2,17.3-1.9,27.6-1.9
	C92.5,2.5,100.6,3,109,4.1z M96.1,83.1V31.4c-1.8-0.3-4.5-0.7-8.2-1c-1.7-0.2-4.1-0.2-7.4-0.2c-5.1,0-8.3,0.5-9.6,1.5
	c-1.8,1.3-3.3,5-4.3,11C65.5,48.7,65,55,65,61.6c0,9.1,1,15.4,3.1,19C70.1,84.2,74,86,79.6,86C85.7,86,91.2,85.1,96.1,83.1z"/>
<path class="st1" d="M134.5,161.3c-2.9-3.1-4.4-7.4-4.4-12.8c0-4.7,1.5-8.6,4.6-11.8c3-3.2,6.9-4.8,11.5-4.8c4.4,0,8.1,1.6,11.1,4.8
	c3,3.2,4.5,7.1,4.5,11.8c0,5.4-1.5,9.6-4.4,12.8c-2.9,3.1-6.8,4.7-11.7,4.7C141.2,166.1,137.4,164.5,134.5,161.3z"/>
</svg>
