<?xml version="1.0" encoding="utf-8"?>
<!-- Generator: Adobe Illustrator 26.5.0, SVG Export Plug-In . SVG Version: 6.00 Build 0)  -->
<svg version="1.1" id="Capa_1" xmlns="http://www.w3.org/2000/svg" xmlns:xlink="http://www.w3.org/1999/xlink" x="0px" y="0px"
	 viewBox="0 0 440.9 109.2" style="enable-background:new 0 0 440.9 109.2;" xml:space="preserve">
<style type="text/css">
	.st0{fill:#454A4C;}
	.st1{fill:#85A2B7;}
</style>
<path class="st0" d="M51.1,21.1c4.3,0.5,9.3,1.3,15,2.2v50.2c0,12-4,21.4-12,28c-1,0.8-3.3,1.6-6.8,2.1c-3.5,0.6-7.5,0.9-12,0.9
	c-9.7,0-17.3-1.3-23-3.8c-0.1-1.9,0.1-4.3,0.4-7.3c0.4-3,0.8-5.4,1.2-7.2c6.1,0.9,12,1.4,17.8,1.4c2.9,0,5.4-0.1,7.5-0.4
	c2.1-0.3,3.3-0.7,3.8-1.3c0.7-0.7,1.2-3.2,1.5-7.6c0.1-1.2,0.1-2.9,0.1-5.2V70c-2.1,3.1-4.8,5.3-8.1,6.7c-3.3,1.3-6.2,2-8.8,2
	c-7.1,0-12.4-2.3-16-6.9c-3.6-4.6-5.4-11.4-5.4-20.3c0-5.9,0.8-11.4,2.5-16.6c1.6-5.2,3.9-8.8,6.8-10.8c1.8-1.3,4.9-2.2,9-2.8
	c4.2-0.6,8.9-0.9,14.1-0.9C42.7,20.3,46.8,20.6,51.1,21.1z M44.5,61.4V35c-0.9-0.2-2.3-0.3-4.2-0.5c-0.8-0.1-2.1-0.1-3.8-0.1
	c-2.6,0-4.2,0.3-4.9,0.8c-0.9,0.7-1.7,2.5-2.2,5.6c-0.5,3.1-0.8,6.3-0.8,9.7c0,4.6,0.5,7.9,1.6,9.7c1.1,1.9,3,2.8,5.9,2.8
	C39.2,62.9,42,62.4,44.5,61.4z"/>
<path class="st0" d="M108.5,20.4c1.2,0.3,2.1,0.5,2.7,0.9c0,1.9-0.2,4.9-0.6,9.2c-0.4,4.2-0.8,7.3-1.1,9c-0.8-0.1-2.4-0.1-4.7-0.1
	c-5.3,0-10,0.3-14.1,0.9v39.1H69.1V21.3h18l2.5,9.3h0.1c2.4-3.2,5-5.8,7.8-7.7c2.8-1.9,5.3-2.9,7.4-2.9
	C106.2,20,107.3,20.2,108.5,20.4z"/>
<path class="st1" d="M116.9,73.9c-5-4.8-7.5-12.3-7.5-22.5c0-5.6,0.5-10.6,1.6-14.8c1.1-4.2,2.3-7.2,3.8-8.9c1.9-2.2,5.5-4,10.7-5.4
	c5.2-1.4,10-2.1,14.6-2.1c10.9,0,18.6,2.3,23.2,6.9c4.6,4.6,6.9,12,6.9,22.2c0,10.9-2.5,19-7.4,24.1c-5,5.1-12.7,7.7-23.2,7.7
	C129.4,81,121.9,78.6,116.9,73.9z M146.3,62.8c1-2.3,1.5-6.4,1.5-12.3c0-4.1-0.2-7.3-0.6-9.5c-0.4-2.2-1.2-3.9-2.3-4.9
	c-1.1-1.1-2.9-1.6-5.2-1.6c-3.4,0-5.3,0.3-5.8,0.9c-0.7,0.6-1.2,2.4-1.6,5.6c-0.4,3.1-0.6,6.4-0.6,9.7c0,5.7,0.6,9.8,1.7,12.1
	c1.1,2.4,3.3,3.5,6.6,3.5C143.2,66.2,145.3,65.1,146.3,62.8z"/>
<path class="st1" d="M155.8,74.2c-5-4.8-7.5-12.3-7.5-22.5c0-5.6,0.5-10.6,1.6-14.8c1.1-4.2,2.3-7.2,3.8-8.9c1.9-2.2,5.5-4,10.7-5.4
	c5.2-1.4,10-2.1,14.6-2.1c10.9,0,18.6,2.3,23.2,6.9c4.6,4.6,6.9,12,6.9,22.2c0,10.9-2.5,19-7.4,24.1c-5,5.1-12.7,7.7-23.2,7.7
	C168.4,81.4,160.8,79,155.8,74.2z M185.3,63.1c1-2.3,1.5-6.4,1.5-12.3c0-4.1-0.2-7.3-0.6-9.5c-0.4-2.2-1.2-3.9-2.3-4.9
	c-1.1-1.1-2.9-1.6-5.2-1.6c-3.4,0-5.3,0.3-5.8,0.9c-0.7,0.6-1.2,2.4-1.6,5.6c-0.4,3.1-0.6,6.4-0.6,9.7c0,5.7,0.6,9.8,1.7,12.1
	c1.1,2.4,3.3,3.5,6.6,3.5C182.1,66.6,184.3,65.4,185.3,63.1z"/>
<path class="st0" d="M260.8,78c-6.8,2.3-14.4,3.4-22.8,3.4c-9.4,0-16.5-2.4-21.1-7.1c-4.7-4.8-7-12.2-7-22.3c0-5,0.7-9.9,2-14.7
	c1.3-4.8,2.8-8.1,4.3-9.8c1.8-1.9,5.2-3.6,10.4-4.9c5.2-1.3,10.5-2,16.1-2c5.8,0,11.7,0.5,17.5,1.5c-0.2,2.1-0.4,4.6-0.8,7.4
	c-0.4,2.8-0.8,5.3-1.2,7.5c-5.2-0.3-10.1-0.5-14.8-0.5c-4.5,0-7.4,0.3-8.7,0.8c-0.7,0.3-1.3,2-1.8,5.2c-0.5,3.2-0.8,6.2-0.8,9
	c0,3.7,0.5,6.5,1.6,8.5c1.1,2,2.7,3.3,5,4.1c2.3,0.8,5.3,1.1,9.2,1.1c1.7,0,5.4-0.2,11.1-0.5L260.8,78z"/>
<path class="st0" d="M307.7,63.9c0.8,0,2.1-0.1,4.2-0.3l1.9,13c-6.5,3-14.9,4.5-25.2,4.5c-9.7,0-17.1-2.4-22.3-7.3
	c-5.2-4.9-7.8-12.2-7.8-22.1c0-5,0.7-9.9,2-14.6c1.3-4.7,2.8-8,4.5-9.8c1.8-1.9,5-3.4,9.8-4.8c4.8-1.3,9.5-2,14.3-2
	c7.6,0,13.3,1.3,17,4c3.8,2.7,6.3,6.4,7.4,11.2c1.2,4.8,1.8,11.1,1.8,19.1c-5.7,0.3-11.3,0.5-16.8,0.5h-17.9c0,2.7,0.6,4.7,1.7,6.1
	c1.1,1.3,2.8,2.2,4.9,2.6c2.1,0.4,5,0.6,8.8,0.6C298.1,64.6,302,64.4,307.7,63.9z M280.7,38.8c-0.3,1.9-0.4,4.1-0.5,6.6h6.6
	c4,0,6.8,0,8.6-0.1c0-4-0.6-6.9-1.7-8.6c-1.1-1.7-3.1-2.5-5.9-2.5c-2.3,0-4.2,0.5-5.9,1.4C281.3,35.8,280.9,36.9,280.7,38.8z"/>
<path class="st0" d="M355.1,20.8c1.2,0.3,2.1,0.5,2.7,0.9c0,1.9-0.2,4.9-0.6,9.2c-0.4,4.2-0.8,7.3-1.1,9c-0.8-0.1-2.4-0.1-4.7-0.1
	c-5.3,0-10,0.3-14.1,0.9v39.1h-21.6V21.7h18l2.5,9.3h0.1c2.4-3.2,5-5.8,7.8-7.7c2.8-1.9,5.3-2.9,7.4-2.9
	C352.7,20.4,353.8,20.5,355.1,20.8z"/>
<path class="st0" d="M423.5,21.7l-15.1,48.6c-2.9,9.3-5.6,16.1-8,20.4c-2.4,4.2-4.7,7.2-7.1,8.9c-1.3,0.9-3.5,1.6-6.4,2.1
	c-2.9,0.5-6,0.8-9.4,0.8c-5,0-9.1-0.5-12.1-1.4c-0.1-2,0-4.5,0.3-7.4c0.3-2.9,0.6-5.4,1-7.4c3.5,0.2,7,0.3,10.3,0.3
	c2.5,0,4.4,0,5.7-0.1c1.3-2.4,2.4-5,3.5-7.7l-8.7-0.5l-19.4-56.5H381l10.1,40.6l0.1,2.4h0.4l9.1-43H423.5z"/>
<path class="st1" d="M413.7,77.3c-2.2-2.3-3.3-5.3-3.3-9.2c0-3.4,1.2-6.2,3.5-8.5c2.3-2.3,5.2-3.5,8.8-3.5c3.4,0,6.2,1.2,8.5,3.5
	c2.3,2.3,3.4,5.2,3.4,8.5c0,3.9-1.1,6.9-3.3,9.2c-2.2,2.3-5.2,3.4-8.9,3.4C418.8,80.7,416,79.6,413.7,77.3z"/>
</svg>
